<mxfile host="app.diagrams.net" modified="2023-03-18T11:28:15.388Z" agent="5.0 (Windows NT 10.0; Win64; x64) AppleWebKit/537.36 (KHTML, like Gecko) Chrome/111.0.0.0 Safari/537.36 Edg/111.0.1661.41" etag="_lpKqPe8dnZQDSrvacq4" version="21.0.6" type="github">
  <diagram name="第 1 页" id="erAXe_Wxpm68nUaS75fc">
    <mxGraphModel dx="780" dy="412" grid="0" gridSize="10" guides="1" tooltips="1" connect="1" arrows="1" fold="1" page="1" pageScale="1" pageWidth="2339" pageHeight="3300" math="0" shadow="0">
      <root>
        <mxCell id="0" />
        <mxCell id="1" parent="0" />
        <mxCell id="F55G2n2z7W6Ln7JBsmad-5" style="edgeStyle=orthogonalEdgeStyle;rounded=0;orthogonalLoop=1;jettySize=auto;html=1;" edge="1" parent="1" source="F55G2n2z7W6Ln7JBsmad-1" target="F55G2n2z7W6Ln7JBsmad-4">
          <mxGeometry relative="1" as="geometry" />
        </mxCell>
        <mxCell id="F55G2n2z7W6Ln7JBsmad-1" value="INIT" style="ellipse;whiteSpace=wrap;html=1;aspect=fixed;" vertex="1" parent="1">
          <mxGeometry x="226" y="1118" width="62" height="62" as="geometry" />
        </mxCell>
        <mxCell id="F55G2n2z7W6Ln7JBsmad-2" value="" style="endArrow=classic;html=1;rounded=0;" edge="1" parent="1">
          <mxGeometry width="50" height="50" relative="1" as="geometry">
            <mxPoint x="158" y="1149" as="sourcePoint" />
            <mxPoint x="226" y="1149" as="targetPoint" />
          </mxGeometry>
        </mxCell>
        <mxCell id="F55G2n2z7W6Ln7JBsmad-4" value="INIT" style="ellipse;whiteSpace=wrap;html=1;aspect=fixed;" vertex="1" parent="1">
          <mxGeometry x="461" y="1118" width="62" height="62" as="geometry" />
        </mxCell>
        <mxCell id="F55G2n2z7W6Ln7JBsmad-6" value="ID" style="ellipse;whiteSpace=wrap;html=1;aspect=fixed;" vertex="1" parent="1">
          <mxGeometry x="466.25" y="1123.25" width="51.5" height="51.5" as="geometry" />
        </mxCell>
        <mxCell id="F55G2n2z7W6Ln7JBsmad-7" value="A~Z|a~z|_" style="text;html=1;align=center;verticalAlign=middle;resizable=0;points=[];autosize=1;strokeColor=none;fillColor=none;" vertex="1" parent="1">
          <mxGeometry x="344" y="1119" width="73" height="26" as="geometry" />
        </mxCell>
        <mxCell id="F55G2n2z7W6Ln7JBsmad-8" value="0~9|A~Z|a~z|_" style="text;html=1;align=center;verticalAlign=middle;resizable=0;points=[];autosize=1;strokeColor=none;fillColor=none;" vertex="1" parent="1">
          <mxGeometry x="498" y="1046" width="96" height="26" as="geometry" />
        </mxCell>
        <mxCell id="F55G2n2z7W6Ln7JBsmad-9" value="" style="curved=1;endArrow=classic;html=1;rounded=0;exitX=0.233;exitY=0.07;exitDx=0;exitDy=0;exitPerimeter=0;entryX=0.783;entryY=0.098;entryDx=0;entryDy=0;entryPerimeter=0;" edge="1" parent="1" source="F55G2n2z7W6Ln7JBsmad-4" target="F55G2n2z7W6Ln7JBsmad-4">
          <mxGeometry width="50" height="50" relative="1" as="geometry">
            <mxPoint x="455" y="1097" as="sourcePoint" />
            <mxPoint x="494" y="1101" as="targetPoint" />
            <Array as="points">
              <mxPoint x="470" y="1094" />
              <mxPoint x="477" y="1081" />
              <mxPoint x="491" y="1072" />
              <mxPoint x="515" y="1084" />
            </Array>
          </mxGeometry>
        </mxCell>
      </root>
    </mxGraphModel>
  </diagram>
</mxfile>
